<?xml version="1.0" encoding="iso-8859-1"?>
<!-- Uploaded to: SVG Repo, www.svgrepo.com, Generator: SVG Repo Mixer Tools -->
<svg height="800px" width="800px" version="1.1" id="Layer_1" xmlns="http://www.w3.org/2000/svg" xmlns:xlink="http://www.w3.org/1999/xlink" 
	 viewBox="0 0 480.8 480.8" xml:space="preserve">
<g>
	<path style="fill:#E94545;" d="M435.9,76.9c-21.7-21.8-51.9-34.3-82.7-34.3c-30.4,0-59.8,12.1-82.7,34.3l-28,28
		c-0.6,0.6-1.3,0.9-2.1,0.9s-1.5-0.3-2.1-0.9l-28-28c-21.7-21.8-51.9-34.3-82.7-34.3s-61,12.5-82.7,34.3
		c-21.8,21.7-34.3,51.9-34.3,82.7c0,11.5,1.6,22.5,5,33.5l1.1,3.5h71.7c1,0,2.2,0.4,2.3,1l0.1,0.4l21.2,48.8l37.1-104.9
		c0.2-0.5,0.8-1.4,1.7-1.4c1.7,0,3.2,0.9,3.8,1.7l39,62.3h38.8c1.8,0,2.9,0.9,3.1,1.8v0.2l28.6,86.7L309.2,119v-0.1
		c0.3-1.7,1.6-2.4,2.3-2.4c1.3,0,3,1.2,3.1,1.8l0.1,0.3l31.7,85.9l115-0.9l1.2-3.2c5-13.3,7.5-27.4,7.5-41.8
		C470.2,128.1,458,99,435.9,76.9z"/>
	<path style="fill:#E94545;" d="M341,208l-28.6-78.8l-45.7,174.9v0.1c-0.5,2.4-1.4,2.4-2.3,2.4c-1.8,0-2.9-0.9-3.1-1.8v-0.2
		l-30.9-94.8h-38c-0.9,0-2-0.2-3-1.7l-36.6-59.2l-38,106.8l-0.1,0.2c-0.2,0.9-1.4,1.8-2.3,1.8c-2.1,0-2.7-0.5-3.5-1.9l-22.8-54.1
		H18.7l3.6,7.2c6.6,13.2,14.2,24.2,22.5,32.5l27.9,27.9c0.1,0.1,0.1,0.2,0.2,0.3v1.5l167.5,166.8l167.4-166.6v-1.6l28.2-28.2
		l0.1-0.1c7.8-8.8,13.8-16.6,18.1-24l4.6-7.6l-114.4,0.8C343.4,210.6,341.9,209.6,341,208z"/>
</g>
<path style="fill:#EE5656;" d="M449.2,158.8c0-25.6-10.4-49.6-28.8-68s-42.4-28-68-28s-49.6,9.6-68,28l-44,44.8l-44.8-44.8
	c-18.4-18.4-42.4-28-68-28s-49.6,9.6-68,28s-28,42.4-28,68c0,11,2.8,27.6,5.9,37.3c-0.1,1.1,3.6,8.9,6.5,9.9
	c3.2,4.8,6.9,9.2,11.4,13.2l31.1,31.7l0.8,1.7l153.1,155.9l153.1-155.9l0.8-1.7l31.1-31.7c4.1-4.2,7.4-8.3,9.8-12.5
	c0,0,5.1-5.3,6.2-9.5c0.1-0.5,0.2-1,0.3-1.6C446.5,184.4,449.2,171.9,449.2,158.8z"/>
<path style="fill:#42210B;" d="M82.8,207.6h-56c5.6,11.2,12.8,21.6,21.6,30.4l28,28c0.8,0.8,164,164.8,164,164.8
	s163.2-164.8,164-165.6l28-28c7.2-7.2,12.8-15.2,17.6-23.2l-105.6,1.6l0,0c-3.2,0-6.4-2.4-7.2-5.6L314,146l-41.6,160
	c-0.8,3.2-4,5.6-8,5.6l0,0c-3.2,0-6.4-2.4-8-5.6l-29.6-90.4h-34.4c-2.4,0-5.6-1.6-7.2-4L154,161.2L119.6,258c-0.8,3.2-4,5.6-7.2,5.6
	s-6.4-1.6-8-4.8L82.8,207.6z M20.4,191.6h68c3.2,0,6.4,1.6,7.2,4.8l16,36.8l32.8-92.8c0.8-3.2,4-4.8,6.4-4.8c3.2-0.8,6.4,0.8,8,4
	l37.6,60h36c3.2,0,6.4,2.4,8,5.6l23.2,70.4L304.4,118c0.8-3.2,4-5.6,7.2-6.4c3.2,0,6.4,2.4,8,5.6l30.4,82.4l108-0.8
	c4.8-12.8,7.2-25.6,7.2-40c0-29.6-12-58.4-32.8-79.2s-49.6-32.8-79.2-32.8c-29.6,0-58.4,12-79.2,32.8l-28,28c-3.2,3.2-8,3.2-11.2,0
	l-28-28c-20.8-20.8-49.6-32.8-79.2-32.8S70,58.8,48.4,79.6s-32.8,49.6-32.8,79.2C15.6,170,17.2,181.2,20.4,191.6z M37.2,68.4
	c24-24,56-37.6,90.4-37.6S194,44.4,218,68.4l22.4,22.4l22.4-22.4c24-24,56-37.6,90.4-37.6s66.4,13.6,90.4,37.6
	c49.6,49.6,49.6,131.2,0,180.8L418,274.8c0,0.8-171.2,172.8-171.2,172.8c-1.6,1.6-3.2,2.4-5.6,2.4c0,0,0,0-0.8,0
	c-2.4,0-4.8-0.8-6.4-2.4c0,0-171.2-171.2-171.2-172.8l-25.6-25.6C-12.4,199.6-12.4,118.8,37.2,68.4z"/>
</svg>